M48
;DRILL file {KiCad 5.0.0+dfsg1-2~bpo9+1} date Sun Oct 14 18:32:02 2018
;FORMAT={-:-/ absolute / metric / decimal}
FMAT,2
METRIC,TZ
T1C0.750
T2C0.762
%
G90
G05
M71
T1
X167.614Y-97.428
X169.614Y-97.428
X171.614Y-97.428
X167.614Y-125.876
X169.614Y-125.876
X171.614Y-125.876
X167.614Y-106.064
X169.614Y-106.064
X171.614Y-106.064
X167.614Y-115.716
X169.614Y-115.716
X171.614Y-115.716
X110.21Y-126.892
X110.21Y-128.892
X167.614Y-135.782
X169.614Y-135.782
X171.614Y-135.782
X106.75Y-92.856
X108.75Y-92.856
X110.75Y-92.856
X112.75Y-92.856
X167.614Y-88.792
X169.614Y-88.792
X171.614Y-88.792
T2
X127.233Y-93.683
X127.233Y-96.223
X127.233Y-98.763
X127.233Y-101.303
X127.233Y-103.843
X127.233Y-106.383
X127.233Y-108.923
X127.233Y-111.463
X127.233Y-114.003
X127.233Y-116.543
X127.233Y-119.083
X127.233Y-121.623
X127.233Y-124.163
X127.233Y-126.703
X127.233Y-129.243
X150.323Y-93.583
X150.323Y-96.123
X150.323Y-98.663
X150.323Y-101.203
X150.323Y-103.743
X150.323Y-106.283
X150.323Y-108.823
X150.323Y-111.363
X150.323Y-113.903
X150.323Y-116.443
X150.323Y-118.983
X150.323Y-121.523
X150.323Y-124.063
X150.323Y-126.603
X150.323Y-129.143
T0
M30
