G04 #@! TF.GenerationSoftware,KiCad,Pcbnew,5.0.0+dfsg1-2~bpo9+1*
G04 #@! TF.CreationDate,2018-09-21T22:54:25+03:00*
G04 #@! TF.ProjectId,client,636C69656E742E6B696361645F706362,rev?*
G04 #@! TF.SameCoordinates,Original*
G04 #@! TF.FileFunction,Copper,L2,Bot,Signal*
G04 #@! TF.FilePolarity,Positive*
%FSLAX46Y46*%
G04 Gerber Fmt 4.6, Leading zero omitted, Abs format (unit mm)*
G04 Created by KiCad (PCBNEW 5.0.0+dfsg1-2~bpo9+1) date Fri Sep 21 22:54:25 2018*
%MOMM*%
%LPD*%
G01*
G04 APERTURE LIST*
G04 #@! TA.AperFunction,Conductor*
%ADD10C,0.100000*%
G04 #@! TD*
G04 #@! TA.AperFunction,SMDPad,CuDef*
%ADD11C,1.425000*%
G04 #@! TD*
G04 #@! TA.AperFunction,SMDPad,CuDef*
%ADD12C,1.500000*%
G04 #@! TD*
G04 #@! TA.AperFunction,SMDPad,CuDef*
%ADD13R,3.000000X1.600000*%
G04 #@! TD*
G04 #@! TA.AperFunction,SMDPad,CuDef*
%ADD14R,5.500000X1.000000*%
G04 #@! TD*
G04 #@! TA.AperFunction,ComponentPad*
%ADD15C,2.000000*%
G04 #@! TD*
G04 #@! TA.AperFunction,SMDPad,CuDef*
%ADD16R,0.698500X1.597660*%
G04 #@! TD*
G04 #@! TA.AperFunction,ComponentPad*
%ADD17C,1.500000*%
G04 #@! TD*
G04 #@! TA.AperFunction,ComponentPad*
%ADD18R,1.500000X1.500000*%
G04 #@! TD*
G04 #@! TA.AperFunction,ViaPad*
%ADD19C,0.500000*%
G04 #@! TD*
G04 #@! TA.AperFunction,Conductor*
%ADD20C,0.250000*%
G04 #@! TD*
G04 APERTURE END LIST*
D10*
G04 #@! TO.N,GNDREF*
G04 #@! TO.C,C4*
G36*
X102468504Y-61356204D02*
X102492773Y-61359804D01*
X102516571Y-61365765D01*
X102539671Y-61374030D01*
X102561849Y-61384520D01*
X102582893Y-61397133D01*
X102602598Y-61411747D01*
X102620777Y-61428223D01*
X102637253Y-61446402D01*
X102651867Y-61466107D01*
X102664480Y-61487151D01*
X102674970Y-61509329D01*
X102683235Y-61532429D01*
X102689196Y-61556227D01*
X102692796Y-61580496D01*
X102694000Y-61605000D01*
X102694000Y-62855000D01*
X102692796Y-62879504D01*
X102689196Y-62903773D01*
X102683235Y-62927571D01*
X102674970Y-62950671D01*
X102664480Y-62972849D01*
X102651867Y-62993893D01*
X102637253Y-63013598D01*
X102620777Y-63031777D01*
X102602598Y-63048253D01*
X102582893Y-63062867D01*
X102561849Y-63075480D01*
X102539671Y-63085970D01*
X102516571Y-63094235D01*
X102492773Y-63100196D01*
X102468504Y-63103796D01*
X102444000Y-63105000D01*
X101519000Y-63105000D01*
X101494496Y-63103796D01*
X101470227Y-63100196D01*
X101446429Y-63094235D01*
X101423329Y-63085970D01*
X101401151Y-63075480D01*
X101380107Y-63062867D01*
X101360402Y-63048253D01*
X101342223Y-63031777D01*
X101325747Y-63013598D01*
X101311133Y-62993893D01*
X101298520Y-62972849D01*
X101288030Y-62950671D01*
X101279765Y-62927571D01*
X101273804Y-62903773D01*
X101270204Y-62879504D01*
X101269000Y-62855000D01*
X101269000Y-61605000D01*
X101270204Y-61580496D01*
X101273804Y-61556227D01*
X101279765Y-61532429D01*
X101288030Y-61509329D01*
X101298520Y-61487151D01*
X101311133Y-61466107D01*
X101325747Y-61446402D01*
X101342223Y-61428223D01*
X101360402Y-61411747D01*
X101380107Y-61397133D01*
X101401151Y-61384520D01*
X101423329Y-61374030D01*
X101446429Y-61365765D01*
X101470227Y-61359804D01*
X101494496Y-61356204D01*
X101519000Y-61355000D01*
X102444000Y-61355000D01*
X102468504Y-61356204D01*
X102468504Y-61356204D01*
G37*
D11*
G04 #@! TD*
G04 #@! TO.P,C4,2*
G04 #@! TO.N,GNDREF*
X101981500Y-62230000D03*
D10*
G04 #@! TO.N,VCC*
G04 #@! TO.C,C4*
G36*
X99493504Y-61356204D02*
X99517773Y-61359804D01*
X99541571Y-61365765D01*
X99564671Y-61374030D01*
X99586849Y-61384520D01*
X99607893Y-61397133D01*
X99627598Y-61411747D01*
X99645777Y-61428223D01*
X99662253Y-61446402D01*
X99676867Y-61466107D01*
X99689480Y-61487151D01*
X99699970Y-61509329D01*
X99708235Y-61532429D01*
X99714196Y-61556227D01*
X99717796Y-61580496D01*
X99719000Y-61605000D01*
X99719000Y-62855000D01*
X99717796Y-62879504D01*
X99714196Y-62903773D01*
X99708235Y-62927571D01*
X99699970Y-62950671D01*
X99689480Y-62972849D01*
X99676867Y-62993893D01*
X99662253Y-63013598D01*
X99645777Y-63031777D01*
X99627598Y-63048253D01*
X99607893Y-63062867D01*
X99586849Y-63075480D01*
X99564671Y-63085970D01*
X99541571Y-63094235D01*
X99517773Y-63100196D01*
X99493504Y-63103796D01*
X99469000Y-63105000D01*
X98544000Y-63105000D01*
X98519496Y-63103796D01*
X98495227Y-63100196D01*
X98471429Y-63094235D01*
X98448329Y-63085970D01*
X98426151Y-63075480D01*
X98405107Y-63062867D01*
X98385402Y-63048253D01*
X98367223Y-63031777D01*
X98350747Y-63013598D01*
X98336133Y-62993893D01*
X98323520Y-62972849D01*
X98313030Y-62950671D01*
X98304765Y-62927571D01*
X98298804Y-62903773D01*
X98295204Y-62879504D01*
X98294000Y-62855000D01*
X98294000Y-61605000D01*
X98295204Y-61580496D01*
X98298804Y-61556227D01*
X98304765Y-61532429D01*
X98313030Y-61509329D01*
X98323520Y-61487151D01*
X98336133Y-61466107D01*
X98350747Y-61446402D01*
X98367223Y-61428223D01*
X98385402Y-61411747D01*
X98405107Y-61397133D01*
X98426151Y-61384520D01*
X98448329Y-61374030D01*
X98471429Y-61365765D01*
X98495227Y-61359804D01*
X98519496Y-61356204D01*
X98544000Y-61355000D01*
X99469000Y-61355000D01*
X99493504Y-61356204D01*
X99493504Y-61356204D01*
G37*
D11*
G04 #@! TD*
G04 #@! TO.P,C4,1*
G04 #@! TO.N,VCC*
X99006500Y-62230000D03*
D10*
G04 #@! TO.N,Net-(C1-Pad2)*
G04 #@! TO.C,C1*
G36*
X110377504Y-35429704D02*
X110401773Y-35433304D01*
X110425571Y-35439265D01*
X110448671Y-35447530D01*
X110470849Y-35458020D01*
X110491893Y-35470633D01*
X110511598Y-35485247D01*
X110529777Y-35501723D01*
X110546253Y-35519902D01*
X110560867Y-35539607D01*
X110573480Y-35560651D01*
X110583970Y-35582829D01*
X110592235Y-35605929D01*
X110598196Y-35629727D01*
X110601796Y-35653996D01*
X110603000Y-35678500D01*
X110603000Y-36603500D01*
X110601796Y-36628004D01*
X110598196Y-36652273D01*
X110592235Y-36676071D01*
X110583970Y-36699171D01*
X110573480Y-36721349D01*
X110560867Y-36742393D01*
X110546253Y-36762098D01*
X110529777Y-36780277D01*
X110511598Y-36796753D01*
X110491893Y-36811367D01*
X110470849Y-36823980D01*
X110448671Y-36834470D01*
X110425571Y-36842735D01*
X110401773Y-36848696D01*
X110377504Y-36852296D01*
X110353000Y-36853500D01*
X109103000Y-36853500D01*
X109078496Y-36852296D01*
X109054227Y-36848696D01*
X109030429Y-36842735D01*
X109007329Y-36834470D01*
X108985151Y-36823980D01*
X108964107Y-36811367D01*
X108944402Y-36796753D01*
X108926223Y-36780277D01*
X108909747Y-36762098D01*
X108895133Y-36742393D01*
X108882520Y-36721349D01*
X108872030Y-36699171D01*
X108863765Y-36676071D01*
X108857804Y-36652273D01*
X108854204Y-36628004D01*
X108853000Y-36603500D01*
X108853000Y-35678500D01*
X108854204Y-35653996D01*
X108857804Y-35629727D01*
X108863765Y-35605929D01*
X108872030Y-35582829D01*
X108882520Y-35560651D01*
X108895133Y-35539607D01*
X108909747Y-35519902D01*
X108926223Y-35501723D01*
X108944402Y-35485247D01*
X108964107Y-35470633D01*
X108985151Y-35458020D01*
X109007329Y-35447530D01*
X109030429Y-35439265D01*
X109054227Y-35433304D01*
X109078496Y-35429704D01*
X109103000Y-35428500D01*
X110353000Y-35428500D01*
X110377504Y-35429704D01*
X110377504Y-35429704D01*
G37*
D11*
G04 #@! TD*
G04 #@! TO.P,C1,2*
G04 #@! TO.N,Net-(C1-Pad2)*
X109728000Y-36141000D03*
D10*
G04 #@! TO.N,GNDREF*
G04 #@! TO.C,C1*
G36*
X110377504Y-38404704D02*
X110401773Y-38408304D01*
X110425571Y-38414265D01*
X110448671Y-38422530D01*
X110470849Y-38433020D01*
X110491893Y-38445633D01*
X110511598Y-38460247D01*
X110529777Y-38476723D01*
X110546253Y-38494902D01*
X110560867Y-38514607D01*
X110573480Y-38535651D01*
X110583970Y-38557829D01*
X110592235Y-38580929D01*
X110598196Y-38604727D01*
X110601796Y-38628996D01*
X110603000Y-38653500D01*
X110603000Y-39578500D01*
X110601796Y-39603004D01*
X110598196Y-39627273D01*
X110592235Y-39651071D01*
X110583970Y-39674171D01*
X110573480Y-39696349D01*
X110560867Y-39717393D01*
X110546253Y-39737098D01*
X110529777Y-39755277D01*
X110511598Y-39771753D01*
X110491893Y-39786367D01*
X110470849Y-39798980D01*
X110448671Y-39809470D01*
X110425571Y-39817735D01*
X110401773Y-39823696D01*
X110377504Y-39827296D01*
X110353000Y-39828500D01*
X109103000Y-39828500D01*
X109078496Y-39827296D01*
X109054227Y-39823696D01*
X109030429Y-39817735D01*
X109007329Y-39809470D01*
X108985151Y-39798980D01*
X108964107Y-39786367D01*
X108944402Y-39771753D01*
X108926223Y-39755277D01*
X108909747Y-39737098D01*
X108895133Y-39717393D01*
X108882520Y-39696349D01*
X108872030Y-39674171D01*
X108863765Y-39651071D01*
X108857804Y-39627273D01*
X108854204Y-39603004D01*
X108853000Y-39578500D01*
X108853000Y-38653500D01*
X108854204Y-38628996D01*
X108857804Y-38604727D01*
X108863765Y-38580929D01*
X108872030Y-38557829D01*
X108882520Y-38535651D01*
X108895133Y-38514607D01*
X108909747Y-38494902D01*
X108926223Y-38476723D01*
X108944402Y-38460247D01*
X108964107Y-38445633D01*
X108985151Y-38433020D01*
X109007329Y-38422530D01*
X109030429Y-38414265D01*
X109054227Y-38408304D01*
X109078496Y-38404704D01*
X109103000Y-38403500D01*
X110353000Y-38403500D01*
X110377504Y-38404704D01*
X110377504Y-38404704D01*
G37*
D11*
G04 #@! TD*
G04 #@! TO.P,C1,1*
G04 #@! TO.N,GNDREF*
X109728000Y-39116000D03*
D10*
G04 #@! TO.N,Net-(C2-Pad2)*
G04 #@! TO.C,C2*
G36*
X101995504Y-35810704D02*
X102019773Y-35814304D01*
X102043571Y-35820265D01*
X102066671Y-35828530D01*
X102088849Y-35839020D01*
X102109893Y-35851633D01*
X102129598Y-35866247D01*
X102147777Y-35882723D01*
X102164253Y-35900902D01*
X102178867Y-35920607D01*
X102191480Y-35941651D01*
X102201970Y-35963829D01*
X102210235Y-35986929D01*
X102216196Y-36010727D01*
X102219796Y-36034996D01*
X102221000Y-36059500D01*
X102221000Y-36984500D01*
X102219796Y-37009004D01*
X102216196Y-37033273D01*
X102210235Y-37057071D01*
X102201970Y-37080171D01*
X102191480Y-37102349D01*
X102178867Y-37123393D01*
X102164253Y-37143098D01*
X102147777Y-37161277D01*
X102129598Y-37177753D01*
X102109893Y-37192367D01*
X102088849Y-37204980D01*
X102066671Y-37215470D01*
X102043571Y-37223735D01*
X102019773Y-37229696D01*
X101995504Y-37233296D01*
X101971000Y-37234500D01*
X100721000Y-37234500D01*
X100696496Y-37233296D01*
X100672227Y-37229696D01*
X100648429Y-37223735D01*
X100625329Y-37215470D01*
X100603151Y-37204980D01*
X100582107Y-37192367D01*
X100562402Y-37177753D01*
X100544223Y-37161277D01*
X100527747Y-37143098D01*
X100513133Y-37123393D01*
X100500520Y-37102349D01*
X100490030Y-37080171D01*
X100481765Y-37057071D01*
X100475804Y-37033273D01*
X100472204Y-37009004D01*
X100471000Y-36984500D01*
X100471000Y-36059500D01*
X100472204Y-36034996D01*
X100475804Y-36010727D01*
X100481765Y-35986929D01*
X100490030Y-35963829D01*
X100500520Y-35941651D01*
X100513133Y-35920607D01*
X100527747Y-35900902D01*
X100544223Y-35882723D01*
X100562402Y-35866247D01*
X100582107Y-35851633D01*
X100603151Y-35839020D01*
X100625329Y-35828530D01*
X100648429Y-35820265D01*
X100672227Y-35814304D01*
X100696496Y-35810704D01*
X100721000Y-35809500D01*
X101971000Y-35809500D01*
X101995504Y-35810704D01*
X101995504Y-35810704D01*
G37*
D11*
G04 #@! TD*
G04 #@! TO.P,C2,2*
G04 #@! TO.N,Net-(C2-Pad2)*
X101346000Y-36522000D03*
D10*
G04 #@! TO.N,GNDREF*
G04 #@! TO.C,C2*
G36*
X101995504Y-38785704D02*
X102019773Y-38789304D01*
X102043571Y-38795265D01*
X102066671Y-38803530D01*
X102088849Y-38814020D01*
X102109893Y-38826633D01*
X102129598Y-38841247D01*
X102147777Y-38857723D01*
X102164253Y-38875902D01*
X102178867Y-38895607D01*
X102191480Y-38916651D01*
X102201970Y-38938829D01*
X102210235Y-38961929D01*
X102216196Y-38985727D01*
X102219796Y-39009996D01*
X102221000Y-39034500D01*
X102221000Y-39959500D01*
X102219796Y-39984004D01*
X102216196Y-40008273D01*
X102210235Y-40032071D01*
X102201970Y-40055171D01*
X102191480Y-40077349D01*
X102178867Y-40098393D01*
X102164253Y-40118098D01*
X102147777Y-40136277D01*
X102129598Y-40152753D01*
X102109893Y-40167367D01*
X102088849Y-40179980D01*
X102066671Y-40190470D01*
X102043571Y-40198735D01*
X102019773Y-40204696D01*
X101995504Y-40208296D01*
X101971000Y-40209500D01*
X100721000Y-40209500D01*
X100696496Y-40208296D01*
X100672227Y-40204696D01*
X100648429Y-40198735D01*
X100625329Y-40190470D01*
X100603151Y-40179980D01*
X100582107Y-40167367D01*
X100562402Y-40152753D01*
X100544223Y-40136277D01*
X100527747Y-40118098D01*
X100513133Y-40098393D01*
X100500520Y-40077349D01*
X100490030Y-40055171D01*
X100481765Y-40032071D01*
X100475804Y-40008273D01*
X100472204Y-39984004D01*
X100471000Y-39959500D01*
X100471000Y-39034500D01*
X100472204Y-39009996D01*
X100475804Y-38985727D01*
X100481765Y-38961929D01*
X100490030Y-38938829D01*
X100500520Y-38916651D01*
X100513133Y-38895607D01*
X100527747Y-38875902D01*
X100544223Y-38857723D01*
X100562402Y-38841247D01*
X100582107Y-38826633D01*
X100603151Y-38814020D01*
X100625329Y-38803530D01*
X100648429Y-38795265D01*
X100672227Y-38789304D01*
X100696496Y-38785704D01*
X100721000Y-38784500D01*
X101971000Y-38784500D01*
X101995504Y-38785704D01*
X101995504Y-38785704D01*
G37*
D11*
G04 #@! TD*
G04 #@! TO.P,C2,1*
G04 #@! TO.N,GNDREF*
X101346000Y-39497000D03*
D10*
G04 #@! TO.N,GNDREF*
G04 #@! TO.C,C3*
G36*
X102860504Y-64866204D02*
X102884773Y-64869804D01*
X102908571Y-64875765D01*
X102931671Y-64884030D01*
X102953849Y-64894520D01*
X102974893Y-64907133D01*
X102994598Y-64921747D01*
X103012777Y-64938223D01*
X103029253Y-64956402D01*
X103043867Y-64976107D01*
X103056480Y-64997151D01*
X103066970Y-65019329D01*
X103075235Y-65042429D01*
X103081196Y-65066227D01*
X103084796Y-65090496D01*
X103086000Y-65115000D01*
X103086000Y-66965000D01*
X103084796Y-66989504D01*
X103081196Y-67013773D01*
X103075235Y-67037571D01*
X103066970Y-67060671D01*
X103056480Y-67082849D01*
X103043867Y-67103893D01*
X103029253Y-67123598D01*
X103012777Y-67141777D01*
X102994598Y-67158253D01*
X102974893Y-67172867D01*
X102953849Y-67185480D01*
X102931671Y-67195970D01*
X102908571Y-67204235D01*
X102884773Y-67210196D01*
X102860504Y-67213796D01*
X102836000Y-67215000D01*
X101836000Y-67215000D01*
X101811496Y-67213796D01*
X101787227Y-67210196D01*
X101763429Y-67204235D01*
X101740329Y-67195970D01*
X101718151Y-67185480D01*
X101697107Y-67172867D01*
X101677402Y-67158253D01*
X101659223Y-67141777D01*
X101642747Y-67123598D01*
X101628133Y-67103893D01*
X101615520Y-67082849D01*
X101605030Y-67060671D01*
X101596765Y-67037571D01*
X101590804Y-67013773D01*
X101587204Y-66989504D01*
X101586000Y-66965000D01*
X101586000Y-65115000D01*
X101587204Y-65090496D01*
X101590804Y-65066227D01*
X101596765Y-65042429D01*
X101605030Y-65019329D01*
X101615520Y-64997151D01*
X101628133Y-64976107D01*
X101642747Y-64956402D01*
X101659223Y-64938223D01*
X101677402Y-64921747D01*
X101697107Y-64907133D01*
X101718151Y-64894520D01*
X101740329Y-64884030D01*
X101763429Y-64875765D01*
X101787227Y-64869804D01*
X101811496Y-64866204D01*
X101836000Y-64865000D01*
X102836000Y-64865000D01*
X102860504Y-64866204D01*
X102860504Y-64866204D01*
G37*
D12*
G04 #@! TD*
G04 #@! TO.P,C3,2*
G04 #@! TO.N,GNDREF*
X102336000Y-66040000D03*
D10*
G04 #@! TO.N,VCC*
G04 #@! TO.C,C3*
G36*
X99610504Y-64866204D02*
X99634773Y-64869804D01*
X99658571Y-64875765D01*
X99681671Y-64884030D01*
X99703849Y-64894520D01*
X99724893Y-64907133D01*
X99744598Y-64921747D01*
X99762777Y-64938223D01*
X99779253Y-64956402D01*
X99793867Y-64976107D01*
X99806480Y-64997151D01*
X99816970Y-65019329D01*
X99825235Y-65042429D01*
X99831196Y-65066227D01*
X99834796Y-65090496D01*
X99836000Y-65115000D01*
X99836000Y-66965000D01*
X99834796Y-66989504D01*
X99831196Y-67013773D01*
X99825235Y-67037571D01*
X99816970Y-67060671D01*
X99806480Y-67082849D01*
X99793867Y-67103893D01*
X99779253Y-67123598D01*
X99762777Y-67141777D01*
X99744598Y-67158253D01*
X99724893Y-67172867D01*
X99703849Y-67185480D01*
X99681671Y-67195970D01*
X99658571Y-67204235D01*
X99634773Y-67210196D01*
X99610504Y-67213796D01*
X99586000Y-67215000D01*
X98586000Y-67215000D01*
X98561496Y-67213796D01*
X98537227Y-67210196D01*
X98513429Y-67204235D01*
X98490329Y-67195970D01*
X98468151Y-67185480D01*
X98447107Y-67172867D01*
X98427402Y-67158253D01*
X98409223Y-67141777D01*
X98392747Y-67123598D01*
X98378133Y-67103893D01*
X98365520Y-67082849D01*
X98355030Y-67060671D01*
X98346765Y-67037571D01*
X98340804Y-67013773D01*
X98337204Y-66989504D01*
X98336000Y-66965000D01*
X98336000Y-65115000D01*
X98337204Y-65090496D01*
X98340804Y-65066227D01*
X98346765Y-65042429D01*
X98355030Y-65019329D01*
X98365520Y-64997151D01*
X98378133Y-64976107D01*
X98392747Y-64956402D01*
X98409223Y-64938223D01*
X98427402Y-64921747D01*
X98447107Y-64907133D01*
X98468151Y-64894520D01*
X98490329Y-64884030D01*
X98513429Y-64875765D01*
X98537227Y-64869804D01*
X98561496Y-64866204D01*
X98586000Y-64865000D01*
X99586000Y-64865000D01*
X99610504Y-64866204D01*
X99610504Y-64866204D01*
G37*
D12*
G04 #@! TD*
G04 #@! TO.P,C3,1*
G04 #@! TO.N,VCC*
X99086000Y-66040000D03*
D13*
G04 #@! TO.P,J1,MP*
G04 #@! TO.N,N/C*
X100485000Y-58105000D03*
X100485000Y-47305000D03*
D14*
G04 #@! TO.P,J1,4*
G04 #@! TO.N,GNDREF*
X102735000Y-55705000D03*
G04 #@! TO.P,J1,3*
G04 #@! TO.N,VCC*
X102735000Y-53705000D03*
G04 #@! TO.P,J1,2*
G04 #@! TO.N,Net-(C1-Pad2)*
X102735000Y-51705000D03*
G04 #@! TO.P,J1,1*
G04 #@! TO.N,Net-(C2-Pad2)*
X102735000Y-49705000D03*
G04 #@! TD*
D10*
G04 #@! TO.N,VCC*
G04 #@! TO.C,R1*
G36*
X113806504Y-38495204D02*
X113830773Y-38498804D01*
X113854571Y-38504765D01*
X113877671Y-38513030D01*
X113899849Y-38523520D01*
X113920893Y-38536133D01*
X113940598Y-38550747D01*
X113958777Y-38567223D01*
X113975253Y-38585402D01*
X113989867Y-38605107D01*
X114002480Y-38626151D01*
X114012970Y-38648329D01*
X114021235Y-38671429D01*
X114027196Y-38695227D01*
X114030796Y-38719496D01*
X114032000Y-38744000D01*
X114032000Y-39669000D01*
X114030796Y-39693504D01*
X114027196Y-39717773D01*
X114021235Y-39741571D01*
X114012970Y-39764671D01*
X114002480Y-39786849D01*
X113989867Y-39807893D01*
X113975253Y-39827598D01*
X113958777Y-39845777D01*
X113940598Y-39862253D01*
X113920893Y-39876867D01*
X113899849Y-39889480D01*
X113877671Y-39899970D01*
X113854571Y-39908235D01*
X113830773Y-39914196D01*
X113806504Y-39917796D01*
X113782000Y-39919000D01*
X112532000Y-39919000D01*
X112507496Y-39917796D01*
X112483227Y-39914196D01*
X112459429Y-39908235D01*
X112436329Y-39899970D01*
X112414151Y-39889480D01*
X112393107Y-39876867D01*
X112373402Y-39862253D01*
X112355223Y-39845777D01*
X112338747Y-39827598D01*
X112324133Y-39807893D01*
X112311520Y-39786849D01*
X112301030Y-39764671D01*
X112292765Y-39741571D01*
X112286804Y-39717773D01*
X112283204Y-39693504D01*
X112282000Y-39669000D01*
X112282000Y-38744000D01*
X112283204Y-38719496D01*
X112286804Y-38695227D01*
X112292765Y-38671429D01*
X112301030Y-38648329D01*
X112311520Y-38626151D01*
X112324133Y-38605107D01*
X112338747Y-38585402D01*
X112355223Y-38567223D01*
X112373402Y-38550747D01*
X112393107Y-38536133D01*
X112414151Y-38523520D01*
X112436329Y-38513030D01*
X112459429Y-38504765D01*
X112483227Y-38498804D01*
X112507496Y-38495204D01*
X112532000Y-38494000D01*
X113782000Y-38494000D01*
X113806504Y-38495204D01*
X113806504Y-38495204D01*
G37*
D11*
G04 #@! TD*
G04 #@! TO.P,R1,2*
G04 #@! TO.N,VCC*
X113157000Y-39206500D03*
D10*
G04 #@! TO.N,Net-(C2-Pad2)*
G04 #@! TO.C,R1*
G36*
X113806504Y-35520204D02*
X113830773Y-35523804D01*
X113854571Y-35529765D01*
X113877671Y-35538030D01*
X113899849Y-35548520D01*
X113920893Y-35561133D01*
X113940598Y-35575747D01*
X113958777Y-35592223D01*
X113975253Y-35610402D01*
X113989867Y-35630107D01*
X114002480Y-35651151D01*
X114012970Y-35673329D01*
X114021235Y-35696429D01*
X114027196Y-35720227D01*
X114030796Y-35744496D01*
X114032000Y-35769000D01*
X114032000Y-36694000D01*
X114030796Y-36718504D01*
X114027196Y-36742773D01*
X114021235Y-36766571D01*
X114012970Y-36789671D01*
X114002480Y-36811849D01*
X113989867Y-36832893D01*
X113975253Y-36852598D01*
X113958777Y-36870777D01*
X113940598Y-36887253D01*
X113920893Y-36901867D01*
X113899849Y-36914480D01*
X113877671Y-36924970D01*
X113854571Y-36933235D01*
X113830773Y-36939196D01*
X113806504Y-36942796D01*
X113782000Y-36944000D01*
X112532000Y-36944000D01*
X112507496Y-36942796D01*
X112483227Y-36939196D01*
X112459429Y-36933235D01*
X112436329Y-36924970D01*
X112414151Y-36914480D01*
X112393107Y-36901867D01*
X112373402Y-36887253D01*
X112355223Y-36870777D01*
X112338747Y-36852598D01*
X112324133Y-36832893D01*
X112311520Y-36811849D01*
X112301030Y-36789671D01*
X112292765Y-36766571D01*
X112286804Y-36742773D01*
X112283204Y-36718504D01*
X112282000Y-36694000D01*
X112282000Y-35769000D01*
X112283204Y-35744496D01*
X112286804Y-35720227D01*
X112292765Y-35696429D01*
X112301030Y-35673329D01*
X112311520Y-35651151D01*
X112324133Y-35630107D01*
X112338747Y-35610402D01*
X112355223Y-35592223D01*
X112373402Y-35575747D01*
X112393107Y-35561133D01*
X112414151Y-35548520D01*
X112436329Y-35538030D01*
X112459429Y-35529765D01*
X112483227Y-35523804D01*
X112507496Y-35520204D01*
X112532000Y-35519000D01*
X113782000Y-35519000D01*
X113806504Y-35520204D01*
X113806504Y-35520204D01*
G37*
D11*
G04 #@! TD*
G04 #@! TO.P,R1,1*
G04 #@! TO.N,Net-(C2-Pad2)*
X113157000Y-36231500D03*
D10*
G04 #@! TO.N,VCC*
G04 #@! TO.C,R2*
G36*
X105932504Y-38622204D02*
X105956773Y-38625804D01*
X105980571Y-38631765D01*
X106003671Y-38640030D01*
X106025849Y-38650520D01*
X106046893Y-38663133D01*
X106066598Y-38677747D01*
X106084777Y-38694223D01*
X106101253Y-38712402D01*
X106115867Y-38732107D01*
X106128480Y-38753151D01*
X106138970Y-38775329D01*
X106147235Y-38798429D01*
X106153196Y-38822227D01*
X106156796Y-38846496D01*
X106158000Y-38871000D01*
X106158000Y-39796000D01*
X106156796Y-39820504D01*
X106153196Y-39844773D01*
X106147235Y-39868571D01*
X106138970Y-39891671D01*
X106128480Y-39913849D01*
X106115867Y-39934893D01*
X106101253Y-39954598D01*
X106084777Y-39972777D01*
X106066598Y-39989253D01*
X106046893Y-40003867D01*
X106025849Y-40016480D01*
X106003671Y-40026970D01*
X105980571Y-40035235D01*
X105956773Y-40041196D01*
X105932504Y-40044796D01*
X105908000Y-40046000D01*
X104658000Y-40046000D01*
X104633496Y-40044796D01*
X104609227Y-40041196D01*
X104585429Y-40035235D01*
X104562329Y-40026970D01*
X104540151Y-40016480D01*
X104519107Y-40003867D01*
X104499402Y-39989253D01*
X104481223Y-39972777D01*
X104464747Y-39954598D01*
X104450133Y-39934893D01*
X104437520Y-39913849D01*
X104427030Y-39891671D01*
X104418765Y-39868571D01*
X104412804Y-39844773D01*
X104409204Y-39820504D01*
X104408000Y-39796000D01*
X104408000Y-38871000D01*
X104409204Y-38846496D01*
X104412804Y-38822227D01*
X104418765Y-38798429D01*
X104427030Y-38775329D01*
X104437520Y-38753151D01*
X104450133Y-38732107D01*
X104464747Y-38712402D01*
X104481223Y-38694223D01*
X104499402Y-38677747D01*
X104519107Y-38663133D01*
X104540151Y-38650520D01*
X104562329Y-38640030D01*
X104585429Y-38631765D01*
X104609227Y-38625804D01*
X104633496Y-38622204D01*
X104658000Y-38621000D01*
X105908000Y-38621000D01*
X105932504Y-38622204D01*
X105932504Y-38622204D01*
G37*
D11*
G04 #@! TD*
G04 #@! TO.P,R2,2*
G04 #@! TO.N,VCC*
X105283000Y-39333500D03*
D10*
G04 #@! TO.N,Net-(C1-Pad2)*
G04 #@! TO.C,R2*
G36*
X105932504Y-35647204D02*
X105956773Y-35650804D01*
X105980571Y-35656765D01*
X106003671Y-35665030D01*
X106025849Y-35675520D01*
X106046893Y-35688133D01*
X106066598Y-35702747D01*
X106084777Y-35719223D01*
X106101253Y-35737402D01*
X106115867Y-35757107D01*
X106128480Y-35778151D01*
X106138970Y-35800329D01*
X106147235Y-35823429D01*
X106153196Y-35847227D01*
X106156796Y-35871496D01*
X106158000Y-35896000D01*
X106158000Y-36821000D01*
X106156796Y-36845504D01*
X106153196Y-36869773D01*
X106147235Y-36893571D01*
X106138970Y-36916671D01*
X106128480Y-36938849D01*
X106115867Y-36959893D01*
X106101253Y-36979598D01*
X106084777Y-36997777D01*
X106066598Y-37014253D01*
X106046893Y-37028867D01*
X106025849Y-37041480D01*
X106003671Y-37051970D01*
X105980571Y-37060235D01*
X105956773Y-37066196D01*
X105932504Y-37069796D01*
X105908000Y-37071000D01*
X104658000Y-37071000D01*
X104633496Y-37069796D01*
X104609227Y-37066196D01*
X104585429Y-37060235D01*
X104562329Y-37051970D01*
X104540151Y-37041480D01*
X104519107Y-37028867D01*
X104499402Y-37014253D01*
X104481223Y-36997777D01*
X104464747Y-36979598D01*
X104450133Y-36959893D01*
X104437520Y-36938849D01*
X104427030Y-36916671D01*
X104418765Y-36893571D01*
X104412804Y-36869773D01*
X104409204Y-36845504D01*
X104408000Y-36821000D01*
X104408000Y-35896000D01*
X104409204Y-35871496D01*
X104412804Y-35847227D01*
X104418765Y-35823429D01*
X104427030Y-35800329D01*
X104437520Y-35778151D01*
X104450133Y-35757107D01*
X104464747Y-35737402D01*
X104481223Y-35719223D01*
X104499402Y-35702747D01*
X104519107Y-35688133D01*
X104540151Y-35675520D01*
X104562329Y-35665030D01*
X104585429Y-35656765D01*
X104609227Y-35650804D01*
X104633496Y-35647204D01*
X104658000Y-35646000D01*
X105908000Y-35646000D01*
X105932504Y-35647204D01*
X105932504Y-35647204D01*
G37*
D11*
G04 #@! TD*
G04 #@! TO.P,R2,1*
G04 #@! TO.N,Net-(C1-Pad2)*
X105283000Y-36358500D03*
D15*
G04 #@! TO.P,SW1,1*
G04 #@! TO.N,Net-(SW1-Pad1)*
X160020000Y-44600000D03*
G04 #@! TO.P,SW1,2*
G04 #@! TO.N,Net-(SW1-Pad2)*
X155520000Y-44600000D03*
G04 #@! TO.P,SW1,1*
G04 #@! TO.N,Net-(SW1-Pad1)*
X160020000Y-38100000D03*
G04 #@! TO.P,SW1,2*
G04 #@! TO.N,Net-(SW1-Pad2)*
X155520000Y-38100000D03*
G04 #@! TD*
G04 #@! TO.P,SW2,1*
G04 #@! TO.N,Net-(SW1-Pad1)*
X160020000Y-56030000D03*
G04 #@! TO.P,SW2,2*
G04 #@! TO.N,Net-(SW2-Pad2)*
X155520000Y-56030000D03*
G04 #@! TO.P,SW2,1*
G04 #@! TO.N,Net-(SW1-Pad1)*
X160020000Y-49530000D03*
G04 #@! TO.P,SW2,2*
G04 #@! TO.N,Net-(SW2-Pad2)*
X155520000Y-49530000D03*
G04 #@! TD*
G04 #@! TO.P,SW3,1*
G04 #@! TO.N,Net-(SW1-Pad1)*
X160020000Y-67460000D03*
G04 #@! TO.P,SW3,2*
G04 #@! TO.N,Net-(SW3-Pad2)*
X155520000Y-67460000D03*
G04 #@! TO.P,SW3,1*
G04 #@! TO.N,Net-(SW1-Pad1)*
X160020000Y-60960000D03*
G04 #@! TO.P,SW3,2*
G04 #@! TO.N,Net-(SW3-Pad2)*
X155520000Y-60960000D03*
G04 #@! TD*
D16*
G04 #@! TO.P,U1,20*
G04 #@! TO.N,Net-(U1-Pad20)*
X146174460Y-47652940D03*
G04 #@! TO.P,U1,19*
G04 #@! TO.N,Net-(SW1-Pad1)*
X144904460Y-47652940D03*
G04 #@! TO.P,U1,18*
G04 #@! TO.N,Net-(C2-Pad2)*
X143634460Y-47652940D03*
G04 #@! TO.P,U1,17*
G04 #@! TO.N,Net-(C1-Pad2)*
X142364460Y-47652940D03*
G04 #@! TO.P,U1,16*
G04 #@! TO.N,VCC*
X141094460Y-47652940D03*
G04 #@! TO.P,U1,15*
G04 #@! TO.N,Net-(U1-Pad15)*
X139829540Y-47652940D03*
G04 #@! TO.P,U1,14*
G04 #@! TO.N,Net-(U1-Pad14)*
X138559540Y-47652940D03*
G04 #@! TO.P,U1,13*
G04 #@! TO.N,Net-(U1-Pad13)*
X137289540Y-47652940D03*
G04 #@! TO.P,U1,12*
G04 #@! TO.N,Net-(U1-Pad12)*
X136019540Y-47652940D03*
G04 #@! TO.P,U1,11*
G04 #@! TO.N,Net-(U1-Pad11)*
X134749540Y-47652940D03*
G04 #@! TO.P,U1,10*
G04 #@! TO.N,Net-(U1-Pad10)*
X134749540Y-57249060D03*
G04 #@! TO.P,U1,9*
G04 #@! TO.N,Net-(U1-Pad9)*
X136019540Y-57249060D03*
G04 #@! TO.P,U1,8*
G04 #@! TO.N,Net-(U1-Pad8)*
X137289540Y-57249060D03*
G04 #@! TO.P,U1,7*
G04 #@! TO.N,Net-(U1-Pad7)*
X138559540Y-57249060D03*
G04 #@! TO.P,U1,6*
G04 #@! TO.N,Net-(U1-Pad6)*
X139829540Y-57249060D03*
G04 #@! TO.P,U1,5*
G04 #@! TO.N,Net-(U1-Pad5)*
X141094460Y-57249060D03*
G04 #@! TO.P,U1,4*
G04 #@! TO.N,Net-(SW1-Pad2)*
X142364460Y-57249060D03*
G04 #@! TO.P,U1,3*
G04 #@! TO.N,Net-(SW2-Pad2)*
X143634460Y-57249060D03*
G04 #@! TO.P,U1,2*
G04 #@! TO.N,Net-(SW3-Pad2)*
X144904460Y-57249060D03*
G04 #@! TO.P,U1,1*
G04 #@! TO.N,GNDREF*
X146174460Y-57249060D03*
G04 #@! TD*
D17*
G04 #@! TO.P,U2,12*
G04 #@! TO.N,Net-(U1-Pad15)*
X115443000Y-45466000D03*
G04 #@! TO.P,U2,11*
G04 #@! TO.N,Net-(SW3-Pad2)*
X117983000Y-45466000D03*
G04 #@! TO.P,U2,10*
G04 #@! TO.N,Net-(U1-Pad7)*
X120523000Y-45466000D03*
G04 #@! TO.P,U2,9*
G04 #@! TO.N,Net-(U1-Pad14)*
X123063000Y-45466000D03*
G04 #@! TO.P,U2,8*
G04 #@! TO.N,Net-(U1-Pad13)*
X125603000Y-45466000D03*
G04 #@! TO.P,U2,7*
G04 #@! TO.N,Net-(SW2-Pad2)*
X128143000Y-45466000D03*
G04 #@! TO.P,U2,6*
G04 #@! TO.N,Net-(U1-Pad12)*
X128143000Y-60706000D03*
G04 #@! TO.P,U2,5*
G04 #@! TO.N,Net-(U1-Pad8)*
X125603000Y-60706000D03*
G04 #@! TO.P,U2,4*
G04 #@! TO.N,Net-(SW1-Pad2)*
X123063000Y-60706000D03*
G04 #@! TO.P,U2,3*
G04 #@! TO.N,Net-(U1-Pad9)*
X120523000Y-60706000D03*
G04 #@! TO.P,U2,2*
G04 #@! TO.N,Net-(U1-Pad5)*
X117983000Y-60706000D03*
D18*
G04 #@! TO.P,U2,1*
G04 #@! TO.N,Net-(U1-Pad6)*
X115443000Y-60706000D03*
G04 #@! TD*
D19*
G04 #@! TO.N,Net-(U1-Pad8)*
X129814000Y-58424200D03*
G04 #@! TO.N,Net-(U1-Pad9)*
X132997200Y-56471400D03*
G04 #@! TO.N,Net-(U1-Pad12)*
X136993500Y-54903500D03*
G04 #@! TD*
D20*
G04 #@! TO.N,VCC*
X105910300Y-53705000D02*
X105910300Y-56381200D01*
X105910300Y-56381200D02*
X102961100Y-59330400D01*
X102961100Y-59330400D02*
X101985600Y-59330400D01*
X101985600Y-59330400D02*
X99086000Y-62230000D01*
X106460800Y-39333500D02*
X106460800Y-53154500D01*
X106460800Y-53154500D02*
X105910300Y-53705000D01*
X99086000Y-62230000D02*
X99006500Y-62230000D01*
X99086000Y-62230000D02*
X99086000Y-66040000D01*
X141094500Y-47652900D02*
X141094500Y-46428800D01*
X141094500Y-46428800D02*
X133872200Y-39206500D01*
X133872200Y-39206500D02*
X113157000Y-39206500D01*
X102735000Y-53705000D02*
X105910300Y-53705000D01*
X113157000Y-39206500D02*
X111861000Y-39206500D01*
X111861000Y-39206500D02*
X110631700Y-37977200D01*
X110631700Y-37977200D02*
X107817100Y-37977200D01*
X107817100Y-37977200D02*
X106460800Y-39333500D01*
X106460800Y-39333500D02*
X105283000Y-39333500D01*
G04 #@! TO.N,GNDREF*
X99559700Y-55705000D02*
X98559600Y-54704900D01*
X98559600Y-54704900D02*
X98559600Y-42283400D01*
X98559600Y-42283400D02*
X101346000Y-39497000D01*
X99559700Y-55705000D02*
X97844200Y-57420500D01*
X97844200Y-57420500D02*
X97844200Y-67198700D01*
X97844200Y-67198700D02*
X98323700Y-67678200D01*
X98323700Y-67678200D02*
X100697800Y-67678200D01*
X100697800Y-67678200D02*
X102336000Y-66040000D01*
X102336000Y-66040000D02*
X101981500Y-65685500D01*
X101981500Y-65685500D02*
X101981500Y-62230000D01*
X102735000Y-55705000D02*
X99559700Y-55705000D01*
X109728000Y-62230000D02*
X101981500Y-62230000D01*
X109728000Y-62230000D02*
X109728000Y-39116000D01*
X146174500Y-58473200D02*
X142158100Y-62489600D01*
X142158100Y-62489600D02*
X109987600Y-62489600D01*
X109987600Y-62489600D02*
X109728000Y-62230000D01*
X146174500Y-57249100D02*
X146174500Y-58473200D01*
G04 #@! TO.N,Net-(SW1-Pad1)*
X158584700Y-43164700D02*
X160020000Y-44600000D01*
X144904500Y-46428800D02*
X148168600Y-43164700D01*
X148168600Y-43164700D02*
X158584700Y-43164700D01*
X160020000Y-38100000D02*
X158584700Y-39535300D01*
X158584700Y-39535300D02*
X158584700Y-43164700D01*
X160020000Y-56030000D02*
X160020000Y-49530000D01*
X160020000Y-60960000D02*
X160020000Y-56030000D01*
X160020000Y-49530000D02*
X160020000Y-44600000D01*
X160020000Y-67460000D02*
X160020000Y-60960000D01*
X144904500Y-47652900D02*
X144904500Y-46428800D01*
G04 #@! TO.N,Net-(C1-Pad2)*
X109728000Y-36141000D02*
X111517700Y-37930700D01*
X111517700Y-37930700D02*
X133866400Y-37930700D01*
X133866400Y-37930700D02*
X142364500Y-46428800D01*
X105283000Y-36358500D02*
X103977800Y-37663700D01*
X103977800Y-37663700D02*
X103977800Y-43226300D01*
X103977800Y-43226300D02*
X105910300Y-45158800D01*
X105910300Y-45158800D02*
X105910300Y-51705000D01*
X102735000Y-51705000D02*
X105910300Y-51705000D01*
X109728000Y-36141000D02*
X109510500Y-36358500D01*
X109510500Y-36358500D02*
X105283000Y-36358500D01*
X142364500Y-47652900D02*
X142364500Y-46428800D01*
G04 #@! TO.N,Net-(C2-Pad2)*
X143634500Y-47652900D02*
X143634500Y-46428800D01*
X143634500Y-46428800D02*
X133437200Y-36231500D01*
X133437200Y-36231500D02*
X113157000Y-36231500D01*
X102671600Y-36522000D02*
X102671600Y-48049300D01*
X102671600Y-48049300D02*
X101941200Y-48779700D01*
X101941200Y-48779700D02*
X99791000Y-48779700D01*
X99791000Y-48779700D02*
X99559700Y-49011000D01*
X99559700Y-49011000D02*
X99559700Y-49705000D01*
X101346000Y-36522000D02*
X102671600Y-36522000D01*
X102671600Y-36522000D02*
X104226400Y-34967200D01*
X104226400Y-34967200D02*
X111892700Y-34967200D01*
X111892700Y-34967200D02*
X113157000Y-36231500D01*
X102735000Y-49705000D02*
X99559700Y-49705000D01*
G04 #@! TO.N,Net-(SW1-Pad2)*
X142364500Y-57249100D02*
X142364500Y-58473200D01*
X123063000Y-60706000D02*
X124241900Y-61884900D01*
X124241900Y-61884900D02*
X138952800Y-61884900D01*
X138952800Y-61884900D02*
X142364500Y-58473200D01*
X142364500Y-57249100D02*
X142364500Y-56025000D01*
X142364500Y-56025000D02*
X153789500Y-44600000D01*
X153789500Y-44600000D02*
X155520000Y-44600000D01*
G04 #@! TO.N,Net-(SW2-Pad2)*
X143634500Y-57249100D02*
X143634500Y-56025000D01*
X155520000Y-56030000D02*
X154961500Y-55471500D01*
X154961500Y-55471500D02*
X144188000Y-55471500D01*
X144188000Y-55471500D02*
X143634500Y-56025000D01*
G04 #@! TO.N,Net-(SW3-Pad2)*
X144904500Y-57249100D02*
X144904500Y-56025000D01*
X144904500Y-56025000D02*
X150585000Y-56025000D01*
X150585000Y-56025000D02*
X155520000Y-60960000D01*
X155520000Y-60960000D02*
X155520000Y-67460000D01*
G04 #@! TO.N,Net-(U1-Pad5)*
X117983000Y-60706000D02*
X119176200Y-59512800D01*
X119176200Y-59512800D02*
X128708200Y-59512800D01*
X128708200Y-59512800D02*
X128846800Y-59651400D01*
X128846800Y-59651400D02*
X139916300Y-59651400D01*
X139916300Y-59651400D02*
X141094500Y-58473200D01*
X141094500Y-57249100D02*
X141094500Y-58473200D01*
G04 #@! TO.N,Net-(U1-Pad6)*
X116618300Y-60706000D02*
X116618300Y-60338700D01*
X116618300Y-60338700D02*
X118009900Y-58947100D01*
X118009900Y-58947100D02*
X129381900Y-58947100D01*
X129381900Y-58947100D02*
X129534300Y-59099500D01*
X129534300Y-59099500D02*
X139203200Y-59099500D01*
X139203200Y-59099500D02*
X139829500Y-58473200D01*
X139829500Y-57249100D02*
X139829500Y-58473200D01*
X115443000Y-60706000D02*
X116618300Y-60706000D01*
G04 #@! TO.N,Net-(U1-Pad7)*
X138559500Y-57249100D02*
X138559500Y-56025000D01*
X120523000Y-45466000D02*
X130515500Y-55458500D01*
X130515500Y-55458500D02*
X136593500Y-55458500D01*
X136593500Y-55458500D02*
X137160000Y-56025000D01*
X137160000Y-56025000D02*
X138559500Y-56025000D01*
G04 #@! TO.N,Net-(U1-Pad8)*
X137289500Y-57249100D02*
X137289500Y-58473200D01*
X129814000Y-58424200D02*
X129863000Y-58473200D01*
X129863000Y-58473200D02*
X137289500Y-58473200D01*
G04 #@! TO.N,Net-(U1-Pad9)*
X136019500Y-57249100D02*
X136019500Y-56025000D01*
X136019500Y-56025000D02*
X133443600Y-56025000D01*
X133443600Y-56025000D02*
X132997200Y-56471400D01*
G04 #@! TO.N,Net-(U1-Pad12)*
X136019500Y-47652900D02*
X136019500Y-53929500D01*
X136019500Y-53929500D02*
X136993500Y-54903500D01*
G04 #@! TO.N,Net-(U1-Pad13)*
X137289500Y-47652900D02*
X137289500Y-46428800D01*
X125603000Y-45466000D02*
X126786700Y-44282300D01*
X126786700Y-44282300D02*
X135143000Y-44282300D01*
X135143000Y-44282300D02*
X137289500Y-46428800D01*
G04 #@! TO.N,Net-(U1-Pad14)*
X123063000Y-45466000D02*
X124811400Y-43717600D01*
X124811400Y-43717600D02*
X135848300Y-43717600D01*
X135848300Y-43717600D02*
X138559500Y-46428800D01*
X138559500Y-47652900D02*
X138559500Y-46428800D01*
G04 #@! TO.N,Net-(U1-Pad15)*
X115443000Y-45466000D02*
X117758000Y-43151000D01*
X117758000Y-43151000D02*
X136551700Y-43151000D01*
X136551700Y-43151000D02*
X139829500Y-46428800D01*
X139829500Y-47652900D02*
X139829500Y-46428800D01*
G04 #@! TD*
M02*
