M48
;DRILL file {KiCad 5.0.0+dfsg1-2~bpo9+1} date Fri Sep 21 22:54:29 2018
;FORMAT={-:-/ absolute / inch / decimal}
FMAT,2
INCH,TZ
T1C0.0157
T2C0.0394
T3C0.0433
%
G90
G05
M72
T1
X5.1108Y-2.3002
X5.2361Y-2.2233
X5.3934Y-2.1616
T2
X4.545Y-1.79
X4.545Y-2.39
X4.645Y-1.79
X4.645Y-2.39
X4.745Y-1.79
X4.745Y-2.39
X4.845Y-1.79
X4.845Y-2.39
X4.945Y-1.79
X4.945Y-2.39
X5.045Y-1.79
X5.045Y-2.39
T3
X6.1228Y-1.5
X6.1228Y-1.7559
X6.3Y-1.5
X6.3Y-1.7559
X6.1228Y-1.95
X6.1228Y-2.2059
X6.3Y-1.95
X6.3Y-2.2059
X6.1228Y-2.4
X6.1228Y-2.6559
X6.3Y-2.4
X6.3Y-2.6559
T0
M30
