G04 #@! TF.GenerationSoftware,KiCad,Pcbnew,5.0.0+dfsg1-2~bpo9+1*
G04 #@! TF.CreationDate,2018-09-21T22:54:25+03:00*
G04 #@! TF.ProjectId,client,636C69656E742E6B696361645F706362,rev?*
G04 #@! TF.SameCoordinates,Original*
G04 #@! TF.FileFunction,Copper,L1,Top,Signal*
G04 #@! TF.FilePolarity,Positive*
%FSLAX46Y46*%
G04 Gerber Fmt 4.6, Leading zero omitted, Abs format (unit mm)*
G04 Created by KiCad (PCBNEW 5.0.0+dfsg1-2~bpo9+1) date Fri Sep 21 22:54:25 2018*
%MOMM*%
%LPD*%
G01*
G04 APERTURE LIST*
G04 #@! TA.AperFunction,ComponentPad*
%ADD10C,2.000000*%
G04 #@! TD*
G04 #@! TA.AperFunction,ComponentPad*
%ADD11C,1.500000*%
G04 #@! TD*
G04 #@! TA.AperFunction,ComponentPad*
%ADD12R,1.500000X1.500000*%
G04 #@! TD*
G04 #@! TA.AperFunction,ViaPad*
%ADD13C,0.500000*%
G04 #@! TD*
G04 #@! TA.AperFunction,Conductor*
%ADD14C,0.250000*%
G04 #@! TD*
G04 APERTURE END LIST*
D10*
G04 #@! TO.P,SW1,1*
G04 #@! TO.N,Net-(SW1-Pad1)*
X160020000Y-44600000D03*
G04 #@! TO.P,SW1,2*
G04 #@! TO.N,Net-(SW1-Pad2)*
X155520000Y-44600000D03*
G04 #@! TO.P,SW1,1*
G04 #@! TO.N,Net-(SW1-Pad1)*
X160020000Y-38100000D03*
G04 #@! TO.P,SW1,2*
G04 #@! TO.N,Net-(SW1-Pad2)*
X155520000Y-38100000D03*
G04 #@! TD*
G04 #@! TO.P,SW2,1*
G04 #@! TO.N,Net-(SW1-Pad1)*
X160020000Y-56030000D03*
G04 #@! TO.P,SW2,2*
G04 #@! TO.N,Net-(SW2-Pad2)*
X155520000Y-56030000D03*
G04 #@! TO.P,SW2,1*
G04 #@! TO.N,Net-(SW1-Pad1)*
X160020000Y-49530000D03*
G04 #@! TO.P,SW2,2*
G04 #@! TO.N,Net-(SW2-Pad2)*
X155520000Y-49530000D03*
G04 #@! TD*
G04 #@! TO.P,SW3,1*
G04 #@! TO.N,Net-(SW1-Pad1)*
X160020000Y-67460000D03*
G04 #@! TO.P,SW3,2*
G04 #@! TO.N,Net-(SW3-Pad2)*
X155520000Y-67460000D03*
G04 #@! TO.P,SW3,1*
G04 #@! TO.N,Net-(SW1-Pad1)*
X160020000Y-60960000D03*
G04 #@! TO.P,SW3,2*
G04 #@! TO.N,Net-(SW3-Pad2)*
X155520000Y-60960000D03*
G04 #@! TD*
D11*
G04 #@! TO.P,U2,12*
G04 #@! TO.N,Net-(U1-Pad15)*
X115443000Y-45466000D03*
G04 #@! TO.P,U2,11*
G04 #@! TO.N,Net-(SW3-Pad2)*
X117983000Y-45466000D03*
G04 #@! TO.P,U2,10*
G04 #@! TO.N,Net-(U1-Pad7)*
X120523000Y-45466000D03*
G04 #@! TO.P,U2,9*
G04 #@! TO.N,Net-(U1-Pad14)*
X123063000Y-45466000D03*
G04 #@! TO.P,U2,8*
G04 #@! TO.N,Net-(U1-Pad13)*
X125603000Y-45466000D03*
G04 #@! TO.P,U2,7*
G04 #@! TO.N,Net-(SW2-Pad2)*
X128143000Y-45466000D03*
G04 #@! TO.P,U2,6*
G04 #@! TO.N,Net-(U1-Pad12)*
X128143000Y-60706000D03*
G04 #@! TO.P,U2,5*
G04 #@! TO.N,Net-(U1-Pad8)*
X125603000Y-60706000D03*
G04 #@! TO.P,U2,4*
G04 #@! TO.N,Net-(SW1-Pad2)*
X123063000Y-60706000D03*
G04 #@! TO.P,U2,3*
G04 #@! TO.N,Net-(U1-Pad9)*
X120523000Y-60706000D03*
G04 #@! TO.P,U2,2*
G04 #@! TO.N,Net-(U1-Pad5)*
X117983000Y-60706000D03*
D12*
G04 #@! TO.P,U2,1*
G04 #@! TO.N,Net-(U1-Pad6)*
X115443000Y-60706000D03*
G04 #@! TD*
D13*
G04 #@! TO.N,Net-(U1-Pad8)*
X129814000Y-58424200D03*
G04 #@! TO.N,Net-(U1-Pad9)*
X132997200Y-56471400D03*
G04 #@! TO.N,Net-(U1-Pad12)*
X136993500Y-54903500D03*
G04 #@! TD*
D14*
G04 #@! TO.N,Net-(SW1-Pad2)*
X155520000Y-38100000D02*
X155520000Y-44600000D01*
G04 #@! TO.N,Net-(SW2-Pad2)*
X128143000Y-45466000D02*
X151456000Y-45466000D01*
X151456000Y-45466000D02*
X155520000Y-49530000D01*
X155520000Y-49530000D02*
X155520000Y-56030000D01*
G04 #@! TO.N,Net-(SW3-Pad2)*
X155520000Y-60960000D02*
X148788200Y-54228200D01*
X148788200Y-54228200D02*
X126745200Y-54228200D01*
X126745200Y-54228200D02*
X117983000Y-45466000D01*
G04 #@! TO.N,Net-(U1-Pad8)*
X125603000Y-60706000D02*
X127884800Y-58424200D01*
X127884800Y-58424200D02*
X129814000Y-58424200D01*
G04 #@! TO.N,Net-(U1-Pad9)*
X120523000Y-60706000D02*
X124757600Y-56471400D01*
X124757600Y-56471400D02*
X132997200Y-56471400D01*
G04 #@! TO.N,Net-(U1-Pad12)*
X128143000Y-60706000D02*
X131191000Y-60706000D01*
X131191000Y-60706000D02*
X136993500Y-54903500D01*
G04 #@! TD*
M02*
