G04 #@! TF.GenerationSoftware,KiCad,Pcbnew,5.0.0+dfsg1-2~bpo9+1*
G04 #@! TF.CreationDate,2018-09-21T22:54:25+03:00*
G04 #@! TF.ProjectId,client,636C69656E742E6B696361645F706362,rev?*
G04 #@! TF.SameCoordinates,Original*
G04 #@! TF.FileFunction,Legend,Bot*
G04 #@! TF.FilePolarity,Positive*
%FSLAX46Y46*%
G04 Gerber Fmt 4.6, Leading zero omitted, Abs format (unit mm)*
G04 Created by KiCad (PCBNEW 5.0.0+dfsg1-2~bpo9+1) date Fri Sep 21 22:54:25 2018*
%MOMM*%
%LPD*%
G01*
G04 APERTURE LIST*
%ADD10C,0.120000*%
%ADD11C,0.150000*%
G04 APERTURE END LIST*
D10*
G04 #@! TO.C,C4*
X99891936Y-61320000D02*
X101096064Y-61320000D01*
X99891936Y-63140000D02*
X101096064Y-63140000D01*
G04 #@! TO.C,C1*
X108818000Y-38230564D02*
X108818000Y-37026436D01*
X110638000Y-38230564D02*
X110638000Y-37026436D01*
G04 #@! TO.C,C2*
X100436000Y-38611564D02*
X100436000Y-37407436D01*
X102256000Y-38611564D02*
X102256000Y-37407436D01*
G04 #@! TO.C,C3*
X98076000Y-64530000D02*
X102461000Y-64530000D01*
X98076000Y-67550000D02*
X98076000Y-64530000D01*
X102461000Y-67550000D02*
X98076000Y-67550000D01*
G04 #@! TO.C,J1*
X97875000Y-58790000D02*
X98725000Y-58790000D01*
X97875000Y-46620000D02*
X97875000Y-58790000D01*
X98725000Y-46620000D02*
X97875000Y-46620000D01*
X103095000Y-58790000D02*
X103095000Y-56465000D01*
X102245000Y-58790000D02*
X103095000Y-58790000D01*
X103095000Y-48945000D02*
X105485000Y-48945000D01*
X103095000Y-46620000D02*
X103095000Y-48945000D01*
X102245000Y-46620000D02*
X103095000Y-46620000D01*
G04 #@! TO.C,R1*
X114067000Y-37116936D02*
X114067000Y-38321064D01*
X112247000Y-37116936D02*
X112247000Y-38321064D01*
G04 #@! TO.C,R2*
X106193000Y-37243936D02*
X106193000Y-38448064D01*
X104373000Y-37243936D02*
X104373000Y-38448064D01*
G04 #@! TO.C,C4*
D11*
X100660666Y-64407142D02*
X100708285Y-64454761D01*
X100851142Y-64502380D01*
X100946380Y-64502380D01*
X101089238Y-64454761D01*
X101184476Y-64359523D01*
X101232095Y-64264285D01*
X101279714Y-64073809D01*
X101279714Y-63930952D01*
X101232095Y-63740476D01*
X101184476Y-63645238D01*
X101089238Y-63550000D01*
X100946380Y-63502380D01*
X100851142Y-63502380D01*
X100708285Y-63550000D01*
X100660666Y-63597619D01*
X99803523Y-63835714D02*
X99803523Y-64502380D01*
X100041619Y-63454761D02*
X100279714Y-64169047D01*
X99660666Y-64169047D01*
G04 #@! TO.C,C1*
X108180142Y-37552333D02*
X108227761Y-37504714D01*
X108275380Y-37361857D01*
X108275380Y-37266619D01*
X108227761Y-37123761D01*
X108132523Y-37028523D01*
X108037285Y-36980904D01*
X107846809Y-36933285D01*
X107703952Y-36933285D01*
X107513476Y-36980904D01*
X107418238Y-37028523D01*
X107323000Y-37123761D01*
X107275380Y-37266619D01*
X107275380Y-37361857D01*
X107323000Y-37504714D01*
X107370619Y-37552333D01*
X108275380Y-38504714D02*
X108275380Y-37933285D01*
X108275380Y-38219000D02*
X107275380Y-38219000D01*
X107418238Y-38123761D01*
X107513476Y-38028523D01*
X107561095Y-37933285D01*
G04 #@! TO.C,C2*
X99671142Y-37679333D02*
X99718761Y-37631714D01*
X99766380Y-37488857D01*
X99766380Y-37393619D01*
X99718761Y-37250761D01*
X99623523Y-37155523D01*
X99528285Y-37107904D01*
X99337809Y-37060285D01*
X99194952Y-37060285D01*
X99004476Y-37107904D01*
X98909238Y-37155523D01*
X98814000Y-37250761D01*
X98766380Y-37393619D01*
X98766380Y-37488857D01*
X98814000Y-37631714D01*
X98861619Y-37679333D01*
X98861619Y-38060285D02*
X98814000Y-38107904D01*
X98766380Y-38203142D01*
X98766380Y-38441238D01*
X98814000Y-38536476D01*
X98861619Y-38584095D01*
X98956857Y-38631714D01*
X99052095Y-38631714D01*
X99194952Y-38584095D01*
X99766380Y-38012666D01*
X99766380Y-38631714D01*
G04 #@! TO.C,C3*
X100877666Y-68747142D02*
X100925285Y-68794761D01*
X101068142Y-68842380D01*
X101163380Y-68842380D01*
X101306238Y-68794761D01*
X101401476Y-68699523D01*
X101449095Y-68604285D01*
X101496714Y-68413809D01*
X101496714Y-68270952D01*
X101449095Y-68080476D01*
X101401476Y-67985238D01*
X101306238Y-67890000D01*
X101163380Y-67842380D01*
X101068142Y-67842380D01*
X100925285Y-67890000D01*
X100877666Y-67937619D01*
X100544333Y-67842380D02*
X99925285Y-67842380D01*
X100258619Y-68223333D01*
X100115761Y-68223333D01*
X100020523Y-68270952D01*
X99972904Y-68318571D01*
X99925285Y-68413809D01*
X99925285Y-68651904D01*
X99972904Y-68747142D01*
X100020523Y-68794761D01*
X100115761Y-68842380D01*
X100401476Y-68842380D01*
X100496714Y-68794761D01*
X100544333Y-68747142D01*
G04 #@! TO.C,J1*
X96237380Y-52371666D02*
X96951666Y-52371666D01*
X97094523Y-52324047D01*
X97189761Y-52228809D01*
X97237380Y-52085952D01*
X97237380Y-51990714D01*
X97237380Y-53371666D02*
X97237380Y-52800238D01*
X97237380Y-53085952D02*
X96237380Y-53085952D01*
X96380238Y-52990714D01*
X96475476Y-52895476D01*
X96523095Y-52800238D01*
G04 #@! TO.C,R1*
X111789380Y-37552333D02*
X111313190Y-37219000D01*
X111789380Y-36980904D02*
X110789380Y-36980904D01*
X110789380Y-37361857D01*
X110837000Y-37457095D01*
X110884619Y-37504714D01*
X110979857Y-37552333D01*
X111122714Y-37552333D01*
X111217952Y-37504714D01*
X111265571Y-37457095D01*
X111313190Y-37361857D01*
X111313190Y-36980904D01*
X111789380Y-38504714D02*
X111789380Y-37933285D01*
X111789380Y-38219000D02*
X110789380Y-38219000D01*
X110932238Y-38123761D01*
X111027476Y-38028523D01*
X111075095Y-37933285D01*
G04 #@! TO.C,R2*
X103915380Y-37679333D02*
X103439190Y-37346000D01*
X103915380Y-37107904D02*
X102915380Y-37107904D01*
X102915380Y-37488857D01*
X102963000Y-37584095D01*
X103010619Y-37631714D01*
X103105857Y-37679333D01*
X103248714Y-37679333D01*
X103343952Y-37631714D01*
X103391571Y-37584095D01*
X103439190Y-37488857D01*
X103439190Y-37107904D01*
X103010619Y-38060285D02*
X102963000Y-38107904D01*
X102915380Y-38203142D01*
X102915380Y-38441238D01*
X102963000Y-38536476D01*
X103010619Y-38584095D01*
X103105857Y-38631714D01*
X103201095Y-38631714D01*
X103343952Y-38584095D01*
X103915380Y-38012666D01*
X103915380Y-38631714D01*
G04 #@! TD*
M02*
