G04 #@! TF.GenerationSoftware,KiCad,Pcbnew,5.0.0+dfsg1-2~bpo9+1*
G04 #@! TF.CreationDate,2018-09-21T22:54:25+03:00*
G04 #@! TF.ProjectId,client,636C69656E742E6B696361645F706362,rev?*
G04 #@! TF.SameCoordinates,Original*
G04 #@! TF.FileFunction,Soldermask,Bot*
G04 #@! TF.FilePolarity,Negative*
%FSLAX46Y46*%
G04 Gerber Fmt 4.6, Leading zero omitted, Abs format (unit mm)*
G04 Created by KiCad (PCBNEW 5.0.0+dfsg1-2~bpo9+1) date Fri Sep 21 22:54:25 2018*
%MOMM*%
%LPD*%
G01*
G04 APERTURE LIST*
%ADD10C,0.100000*%
%ADD11C,1.825000*%
%ADD12C,1.900000*%
%ADD13R,3.400000X2.000000*%
%ADD14R,5.900000X1.400000*%
%ADD15C,2.400000*%
%ADD16R,1.098500X1.997660*%
%ADD17R,1.900000X1.900000*%
%ADD18C,2.600000*%
G04 APERTURE END LIST*
D10*
G04 #@! TO.C,C4*
G36*
X102605207Y-61156542D02*
X102636287Y-61161152D01*
X102666766Y-61168787D01*
X102696350Y-61179372D01*
X102724754Y-61192806D01*
X102751704Y-61208959D01*
X102776942Y-61227677D01*
X102800223Y-61248777D01*
X102821323Y-61272058D01*
X102840041Y-61297296D01*
X102856194Y-61324246D01*
X102869628Y-61352650D01*
X102880213Y-61382234D01*
X102887848Y-61412713D01*
X102892458Y-61443793D01*
X102894000Y-61475176D01*
X102894000Y-62984824D01*
X102892458Y-63016207D01*
X102887848Y-63047287D01*
X102880213Y-63077766D01*
X102869628Y-63107350D01*
X102856194Y-63135754D01*
X102840041Y-63162704D01*
X102821323Y-63187942D01*
X102800223Y-63211223D01*
X102776942Y-63232323D01*
X102751704Y-63251041D01*
X102724754Y-63267194D01*
X102696350Y-63280628D01*
X102666766Y-63291213D01*
X102636287Y-63298848D01*
X102605207Y-63303458D01*
X102573824Y-63305000D01*
X101389176Y-63305000D01*
X101357793Y-63303458D01*
X101326713Y-63298848D01*
X101296234Y-63291213D01*
X101266650Y-63280628D01*
X101238246Y-63267194D01*
X101211296Y-63251041D01*
X101186058Y-63232323D01*
X101162777Y-63211223D01*
X101141677Y-63187942D01*
X101122959Y-63162704D01*
X101106806Y-63135754D01*
X101093372Y-63107350D01*
X101082787Y-63077766D01*
X101075152Y-63047287D01*
X101070542Y-63016207D01*
X101069000Y-62984824D01*
X101069000Y-61475176D01*
X101070542Y-61443793D01*
X101075152Y-61412713D01*
X101082787Y-61382234D01*
X101093372Y-61352650D01*
X101106806Y-61324246D01*
X101122959Y-61297296D01*
X101141677Y-61272058D01*
X101162777Y-61248777D01*
X101186058Y-61227677D01*
X101211296Y-61208959D01*
X101238246Y-61192806D01*
X101266650Y-61179372D01*
X101296234Y-61168787D01*
X101326713Y-61161152D01*
X101357793Y-61156542D01*
X101389176Y-61155000D01*
X102573824Y-61155000D01*
X102605207Y-61156542D01*
X102605207Y-61156542D01*
G37*
D11*
X101981500Y-62230000D03*
D10*
G36*
X99630207Y-61156542D02*
X99661287Y-61161152D01*
X99691766Y-61168787D01*
X99721350Y-61179372D01*
X99749754Y-61192806D01*
X99776704Y-61208959D01*
X99801942Y-61227677D01*
X99825223Y-61248777D01*
X99846323Y-61272058D01*
X99865041Y-61297296D01*
X99881194Y-61324246D01*
X99894628Y-61352650D01*
X99905213Y-61382234D01*
X99912848Y-61412713D01*
X99917458Y-61443793D01*
X99919000Y-61475176D01*
X99919000Y-62984824D01*
X99917458Y-63016207D01*
X99912848Y-63047287D01*
X99905213Y-63077766D01*
X99894628Y-63107350D01*
X99881194Y-63135754D01*
X99865041Y-63162704D01*
X99846323Y-63187942D01*
X99825223Y-63211223D01*
X99801942Y-63232323D01*
X99776704Y-63251041D01*
X99749754Y-63267194D01*
X99721350Y-63280628D01*
X99691766Y-63291213D01*
X99661287Y-63298848D01*
X99630207Y-63303458D01*
X99598824Y-63305000D01*
X98414176Y-63305000D01*
X98382793Y-63303458D01*
X98351713Y-63298848D01*
X98321234Y-63291213D01*
X98291650Y-63280628D01*
X98263246Y-63267194D01*
X98236296Y-63251041D01*
X98211058Y-63232323D01*
X98187777Y-63211223D01*
X98166677Y-63187942D01*
X98147959Y-63162704D01*
X98131806Y-63135754D01*
X98118372Y-63107350D01*
X98107787Y-63077766D01*
X98100152Y-63047287D01*
X98095542Y-63016207D01*
X98094000Y-62984824D01*
X98094000Y-61475176D01*
X98095542Y-61443793D01*
X98100152Y-61412713D01*
X98107787Y-61382234D01*
X98118372Y-61352650D01*
X98131806Y-61324246D01*
X98147959Y-61297296D01*
X98166677Y-61272058D01*
X98187777Y-61248777D01*
X98211058Y-61227677D01*
X98236296Y-61208959D01*
X98263246Y-61192806D01*
X98291650Y-61179372D01*
X98321234Y-61168787D01*
X98351713Y-61161152D01*
X98382793Y-61156542D01*
X98414176Y-61155000D01*
X99598824Y-61155000D01*
X99630207Y-61156542D01*
X99630207Y-61156542D01*
G37*
D11*
X99006500Y-62230000D03*
G04 #@! TD*
D10*
G04 #@! TO.C,C1*
G36*
X110514207Y-35230042D02*
X110545287Y-35234652D01*
X110575766Y-35242287D01*
X110605350Y-35252872D01*
X110633754Y-35266306D01*
X110660704Y-35282459D01*
X110685942Y-35301177D01*
X110709223Y-35322277D01*
X110730323Y-35345558D01*
X110749041Y-35370796D01*
X110765194Y-35397746D01*
X110778628Y-35426150D01*
X110789213Y-35455734D01*
X110796848Y-35486213D01*
X110801458Y-35517293D01*
X110803000Y-35548676D01*
X110803000Y-36733324D01*
X110801458Y-36764707D01*
X110796848Y-36795787D01*
X110789213Y-36826266D01*
X110778628Y-36855850D01*
X110765194Y-36884254D01*
X110749041Y-36911204D01*
X110730323Y-36936442D01*
X110709223Y-36959723D01*
X110685942Y-36980823D01*
X110660704Y-36999541D01*
X110633754Y-37015694D01*
X110605350Y-37029128D01*
X110575766Y-37039713D01*
X110545287Y-37047348D01*
X110514207Y-37051958D01*
X110482824Y-37053500D01*
X108973176Y-37053500D01*
X108941793Y-37051958D01*
X108910713Y-37047348D01*
X108880234Y-37039713D01*
X108850650Y-37029128D01*
X108822246Y-37015694D01*
X108795296Y-36999541D01*
X108770058Y-36980823D01*
X108746777Y-36959723D01*
X108725677Y-36936442D01*
X108706959Y-36911204D01*
X108690806Y-36884254D01*
X108677372Y-36855850D01*
X108666787Y-36826266D01*
X108659152Y-36795787D01*
X108654542Y-36764707D01*
X108653000Y-36733324D01*
X108653000Y-35548676D01*
X108654542Y-35517293D01*
X108659152Y-35486213D01*
X108666787Y-35455734D01*
X108677372Y-35426150D01*
X108690806Y-35397746D01*
X108706959Y-35370796D01*
X108725677Y-35345558D01*
X108746777Y-35322277D01*
X108770058Y-35301177D01*
X108795296Y-35282459D01*
X108822246Y-35266306D01*
X108850650Y-35252872D01*
X108880234Y-35242287D01*
X108910713Y-35234652D01*
X108941793Y-35230042D01*
X108973176Y-35228500D01*
X110482824Y-35228500D01*
X110514207Y-35230042D01*
X110514207Y-35230042D01*
G37*
D11*
X109728000Y-36141000D03*
D10*
G36*
X110514207Y-38205042D02*
X110545287Y-38209652D01*
X110575766Y-38217287D01*
X110605350Y-38227872D01*
X110633754Y-38241306D01*
X110660704Y-38257459D01*
X110685942Y-38276177D01*
X110709223Y-38297277D01*
X110730323Y-38320558D01*
X110749041Y-38345796D01*
X110765194Y-38372746D01*
X110778628Y-38401150D01*
X110789213Y-38430734D01*
X110796848Y-38461213D01*
X110801458Y-38492293D01*
X110803000Y-38523676D01*
X110803000Y-39708324D01*
X110801458Y-39739707D01*
X110796848Y-39770787D01*
X110789213Y-39801266D01*
X110778628Y-39830850D01*
X110765194Y-39859254D01*
X110749041Y-39886204D01*
X110730323Y-39911442D01*
X110709223Y-39934723D01*
X110685942Y-39955823D01*
X110660704Y-39974541D01*
X110633754Y-39990694D01*
X110605350Y-40004128D01*
X110575766Y-40014713D01*
X110545287Y-40022348D01*
X110514207Y-40026958D01*
X110482824Y-40028500D01*
X108973176Y-40028500D01*
X108941793Y-40026958D01*
X108910713Y-40022348D01*
X108880234Y-40014713D01*
X108850650Y-40004128D01*
X108822246Y-39990694D01*
X108795296Y-39974541D01*
X108770058Y-39955823D01*
X108746777Y-39934723D01*
X108725677Y-39911442D01*
X108706959Y-39886204D01*
X108690806Y-39859254D01*
X108677372Y-39830850D01*
X108666787Y-39801266D01*
X108659152Y-39770787D01*
X108654542Y-39739707D01*
X108653000Y-39708324D01*
X108653000Y-38523676D01*
X108654542Y-38492293D01*
X108659152Y-38461213D01*
X108666787Y-38430734D01*
X108677372Y-38401150D01*
X108690806Y-38372746D01*
X108706959Y-38345796D01*
X108725677Y-38320558D01*
X108746777Y-38297277D01*
X108770058Y-38276177D01*
X108795296Y-38257459D01*
X108822246Y-38241306D01*
X108850650Y-38227872D01*
X108880234Y-38217287D01*
X108910713Y-38209652D01*
X108941793Y-38205042D01*
X108973176Y-38203500D01*
X110482824Y-38203500D01*
X110514207Y-38205042D01*
X110514207Y-38205042D01*
G37*
D11*
X109728000Y-39116000D03*
G04 #@! TD*
D10*
G04 #@! TO.C,C2*
G36*
X102132207Y-35611042D02*
X102163287Y-35615652D01*
X102193766Y-35623287D01*
X102223350Y-35633872D01*
X102251754Y-35647306D01*
X102278704Y-35663459D01*
X102303942Y-35682177D01*
X102327223Y-35703277D01*
X102348323Y-35726558D01*
X102367041Y-35751796D01*
X102383194Y-35778746D01*
X102396628Y-35807150D01*
X102407213Y-35836734D01*
X102414848Y-35867213D01*
X102419458Y-35898293D01*
X102421000Y-35929676D01*
X102421000Y-37114324D01*
X102419458Y-37145707D01*
X102414848Y-37176787D01*
X102407213Y-37207266D01*
X102396628Y-37236850D01*
X102383194Y-37265254D01*
X102367041Y-37292204D01*
X102348323Y-37317442D01*
X102327223Y-37340723D01*
X102303942Y-37361823D01*
X102278704Y-37380541D01*
X102251754Y-37396694D01*
X102223350Y-37410128D01*
X102193766Y-37420713D01*
X102163287Y-37428348D01*
X102132207Y-37432958D01*
X102100824Y-37434500D01*
X100591176Y-37434500D01*
X100559793Y-37432958D01*
X100528713Y-37428348D01*
X100498234Y-37420713D01*
X100468650Y-37410128D01*
X100440246Y-37396694D01*
X100413296Y-37380541D01*
X100388058Y-37361823D01*
X100364777Y-37340723D01*
X100343677Y-37317442D01*
X100324959Y-37292204D01*
X100308806Y-37265254D01*
X100295372Y-37236850D01*
X100284787Y-37207266D01*
X100277152Y-37176787D01*
X100272542Y-37145707D01*
X100271000Y-37114324D01*
X100271000Y-35929676D01*
X100272542Y-35898293D01*
X100277152Y-35867213D01*
X100284787Y-35836734D01*
X100295372Y-35807150D01*
X100308806Y-35778746D01*
X100324959Y-35751796D01*
X100343677Y-35726558D01*
X100364777Y-35703277D01*
X100388058Y-35682177D01*
X100413296Y-35663459D01*
X100440246Y-35647306D01*
X100468650Y-35633872D01*
X100498234Y-35623287D01*
X100528713Y-35615652D01*
X100559793Y-35611042D01*
X100591176Y-35609500D01*
X102100824Y-35609500D01*
X102132207Y-35611042D01*
X102132207Y-35611042D01*
G37*
D11*
X101346000Y-36522000D03*
D10*
G36*
X102132207Y-38586042D02*
X102163287Y-38590652D01*
X102193766Y-38598287D01*
X102223350Y-38608872D01*
X102251754Y-38622306D01*
X102278704Y-38638459D01*
X102303942Y-38657177D01*
X102327223Y-38678277D01*
X102348323Y-38701558D01*
X102367041Y-38726796D01*
X102383194Y-38753746D01*
X102396628Y-38782150D01*
X102407213Y-38811734D01*
X102414848Y-38842213D01*
X102419458Y-38873293D01*
X102421000Y-38904676D01*
X102421000Y-40089324D01*
X102419458Y-40120707D01*
X102414848Y-40151787D01*
X102407213Y-40182266D01*
X102396628Y-40211850D01*
X102383194Y-40240254D01*
X102367041Y-40267204D01*
X102348323Y-40292442D01*
X102327223Y-40315723D01*
X102303942Y-40336823D01*
X102278704Y-40355541D01*
X102251754Y-40371694D01*
X102223350Y-40385128D01*
X102193766Y-40395713D01*
X102163287Y-40403348D01*
X102132207Y-40407958D01*
X102100824Y-40409500D01*
X100591176Y-40409500D01*
X100559793Y-40407958D01*
X100528713Y-40403348D01*
X100498234Y-40395713D01*
X100468650Y-40385128D01*
X100440246Y-40371694D01*
X100413296Y-40355541D01*
X100388058Y-40336823D01*
X100364777Y-40315723D01*
X100343677Y-40292442D01*
X100324959Y-40267204D01*
X100308806Y-40240254D01*
X100295372Y-40211850D01*
X100284787Y-40182266D01*
X100277152Y-40151787D01*
X100272542Y-40120707D01*
X100271000Y-40089324D01*
X100271000Y-38904676D01*
X100272542Y-38873293D01*
X100277152Y-38842213D01*
X100284787Y-38811734D01*
X100295372Y-38782150D01*
X100308806Y-38753746D01*
X100324959Y-38726796D01*
X100343677Y-38701558D01*
X100364777Y-38678277D01*
X100388058Y-38657177D01*
X100413296Y-38638459D01*
X100440246Y-38622306D01*
X100468650Y-38608872D01*
X100498234Y-38598287D01*
X100528713Y-38590652D01*
X100559793Y-38586042D01*
X100591176Y-38584500D01*
X102100824Y-38584500D01*
X102132207Y-38586042D01*
X102132207Y-38586042D01*
G37*
D11*
X101346000Y-39497000D03*
G04 #@! TD*
D10*
G04 #@! TO.C,C3*
G36*
X103000372Y-64666525D02*
X103031112Y-64671085D01*
X103061257Y-64678636D01*
X103090516Y-64689105D01*
X103118609Y-64702392D01*
X103145264Y-64718368D01*
X103170224Y-64736880D01*
X103193250Y-64757750D01*
X103214120Y-64780776D01*
X103232632Y-64805736D01*
X103248608Y-64832391D01*
X103261895Y-64860484D01*
X103272364Y-64889743D01*
X103279915Y-64919888D01*
X103284475Y-64950628D01*
X103286000Y-64981667D01*
X103286000Y-67098333D01*
X103284475Y-67129372D01*
X103279915Y-67160112D01*
X103272364Y-67190257D01*
X103261895Y-67219516D01*
X103248608Y-67247609D01*
X103232632Y-67274264D01*
X103214120Y-67299224D01*
X103193250Y-67322250D01*
X103170224Y-67343120D01*
X103145264Y-67361632D01*
X103118609Y-67377608D01*
X103090516Y-67390895D01*
X103061257Y-67401364D01*
X103031112Y-67408915D01*
X103000372Y-67413475D01*
X102969333Y-67415000D01*
X101702667Y-67415000D01*
X101671628Y-67413475D01*
X101640888Y-67408915D01*
X101610743Y-67401364D01*
X101581484Y-67390895D01*
X101553391Y-67377608D01*
X101526736Y-67361632D01*
X101501776Y-67343120D01*
X101478750Y-67322250D01*
X101457880Y-67299224D01*
X101439368Y-67274264D01*
X101423392Y-67247609D01*
X101410105Y-67219516D01*
X101399636Y-67190257D01*
X101392085Y-67160112D01*
X101387525Y-67129372D01*
X101386000Y-67098333D01*
X101386000Y-64981667D01*
X101387525Y-64950628D01*
X101392085Y-64919888D01*
X101399636Y-64889743D01*
X101410105Y-64860484D01*
X101423392Y-64832391D01*
X101439368Y-64805736D01*
X101457880Y-64780776D01*
X101478750Y-64757750D01*
X101501776Y-64736880D01*
X101526736Y-64718368D01*
X101553391Y-64702392D01*
X101581484Y-64689105D01*
X101610743Y-64678636D01*
X101640888Y-64671085D01*
X101671628Y-64666525D01*
X101702667Y-64665000D01*
X102969333Y-64665000D01*
X103000372Y-64666525D01*
X103000372Y-64666525D01*
G37*
D12*
X102336000Y-66040000D03*
D10*
G36*
X99750372Y-64666525D02*
X99781112Y-64671085D01*
X99811257Y-64678636D01*
X99840516Y-64689105D01*
X99868609Y-64702392D01*
X99895264Y-64718368D01*
X99920224Y-64736880D01*
X99943250Y-64757750D01*
X99964120Y-64780776D01*
X99982632Y-64805736D01*
X99998608Y-64832391D01*
X100011895Y-64860484D01*
X100022364Y-64889743D01*
X100029915Y-64919888D01*
X100034475Y-64950628D01*
X100036000Y-64981667D01*
X100036000Y-67098333D01*
X100034475Y-67129372D01*
X100029915Y-67160112D01*
X100022364Y-67190257D01*
X100011895Y-67219516D01*
X99998608Y-67247609D01*
X99982632Y-67274264D01*
X99964120Y-67299224D01*
X99943250Y-67322250D01*
X99920224Y-67343120D01*
X99895264Y-67361632D01*
X99868609Y-67377608D01*
X99840516Y-67390895D01*
X99811257Y-67401364D01*
X99781112Y-67408915D01*
X99750372Y-67413475D01*
X99719333Y-67415000D01*
X98452667Y-67415000D01*
X98421628Y-67413475D01*
X98390888Y-67408915D01*
X98360743Y-67401364D01*
X98331484Y-67390895D01*
X98303391Y-67377608D01*
X98276736Y-67361632D01*
X98251776Y-67343120D01*
X98228750Y-67322250D01*
X98207880Y-67299224D01*
X98189368Y-67274264D01*
X98173392Y-67247609D01*
X98160105Y-67219516D01*
X98149636Y-67190257D01*
X98142085Y-67160112D01*
X98137525Y-67129372D01*
X98136000Y-67098333D01*
X98136000Y-64981667D01*
X98137525Y-64950628D01*
X98142085Y-64919888D01*
X98149636Y-64889743D01*
X98160105Y-64860484D01*
X98173392Y-64832391D01*
X98189368Y-64805736D01*
X98207880Y-64780776D01*
X98228750Y-64757750D01*
X98251776Y-64736880D01*
X98276736Y-64718368D01*
X98303391Y-64702392D01*
X98331484Y-64689105D01*
X98360743Y-64678636D01*
X98390888Y-64671085D01*
X98421628Y-64666525D01*
X98452667Y-64665000D01*
X99719333Y-64665000D01*
X99750372Y-64666525D01*
X99750372Y-64666525D01*
G37*
D12*
X99086000Y-66040000D03*
G04 #@! TD*
D13*
G04 #@! TO.C,J1*
X100485000Y-58105000D03*
X100485000Y-47305000D03*
D14*
X102735000Y-55705000D03*
X102735000Y-53705000D03*
X102735000Y-51705000D03*
X102735000Y-49705000D03*
G04 #@! TD*
D10*
G04 #@! TO.C,R1*
G36*
X113943207Y-38295542D02*
X113974287Y-38300152D01*
X114004766Y-38307787D01*
X114034350Y-38318372D01*
X114062754Y-38331806D01*
X114089704Y-38347959D01*
X114114942Y-38366677D01*
X114138223Y-38387777D01*
X114159323Y-38411058D01*
X114178041Y-38436296D01*
X114194194Y-38463246D01*
X114207628Y-38491650D01*
X114218213Y-38521234D01*
X114225848Y-38551713D01*
X114230458Y-38582793D01*
X114232000Y-38614176D01*
X114232000Y-39798824D01*
X114230458Y-39830207D01*
X114225848Y-39861287D01*
X114218213Y-39891766D01*
X114207628Y-39921350D01*
X114194194Y-39949754D01*
X114178041Y-39976704D01*
X114159323Y-40001942D01*
X114138223Y-40025223D01*
X114114942Y-40046323D01*
X114089704Y-40065041D01*
X114062754Y-40081194D01*
X114034350Y-40094628D01*
X114004766Y-40105213D01*
X113974287Y-40112848D01*
X113943207Y-40117458D01*
X113911824Y-40119000D01*
X112402176Y-40119000D01*
X112370793Y-40117458D01*
X112339713Y-40112848D01*
X112309234Y-40105213D01*
X112279650Y-40094628D01*
X112251246Y-40081194D01*
X112224296Y-40065041D01*
X112199058Y-40046323D01*
X112175777Y-40025223D01*
X112154677Y-40001942D01*
X112135959Y-39976704D01*
X112119806Y-39949754D01*
X112106372Y-39921350D01*
X112095787Y-39891766D01*
X112088152Y-39861287D01*
X112083542Y-39830207D01*
X112082000Y-39798824D01*
X112082000Y-38614176D01*
X112083542Y-38582793D01*
X112088152Y-38551713D01*
X112095787Y-38521234D01*
X112106372Y-38491650D01*
X112119806Y-38463246D01*
X112135959Y-38436296D01*
X112154677Y-38411058D01*
X112175777Y-38387777D01*
X112199058Y-38366677D01*
X112224296Y-38347959D01*
X112251246Y-38331806D01*
X112279650Y-38318372D01*
X112309234Y-38307787D01*
X112339713Y-38300152D01*
X112370793Y-38295542D01*
X112402176Y-38294000D01*
X113911824Y-38294000D01*
X113943207Y-38295542D01*
X113943207Y-38295542D01*
G37*
D11*
X113157000Y-39206500D03*
D10*
G36*
X113943207Y-35320542D02*
X113974287Y-35325152D01*
X114004766Y-35332787D01*
X114034350Y-35343372D01*
X114062754Y-35356806D01*
X114089704Y-35372959D01*
X114114942Y-35391677D01*
X114138223Y-35412777D01*
X114159323Y-35436058D01*
X114178041Y-35461296D01*
X114194194Y-35488246D01*
X114207628Y-35516650D01*
X114218213Y-35546234D01*
X114225848Y-35576713D01*
X114230458Y-35607793D01*
X114232000Y-35639176D01*
X114232000Y-36823824D01*
X114230458Y-36855207D01*
X114225848Y-36886287D01*
X114218213Y-36916766D01*
X114207628Y-36946350D01*
X114194194Y-36974754D01*
X114178041Y-37001704D01*
X114159323Y-37026942D01*
X114138223Y-37050223D01*
X114114942Y-37071323D01*
X114089704Y-37090041D01*
X114062754Y-37106194D01*
X114034350Y-37119628D01*
X114004766Y-37130213D01*
X113974287Y-37137848D01*
X113943207Y-37142458D01*
X113911824Y-37144000D01*
X112402176Y-37144000D01*
X112370793Y-37142458D01*
X112339713Y-37137848D01*
X112309234Y-37130213D01*
X112279650Y-37119628D01*
X112251246Y-37106194D01*
X112224296Y-37090041D01*
X112199058Y-37071323D01*
X112175777Y-37050223D01*
X112154677Y-37026942D01*
X112135959Y-37001704D01*
X112119806Y-36974754D01*
X112106372Y-36946350D01*
X112095787Y-36916766D01*
X112088152Y-36886287D01*
X112083542Y-36855207D01*
X112082000Y-36823824D01*
X112082000Y-35639176D01*
X112083542Y-35607793D01*
X112088152Y-35576713D01*
X112095787Y-35546234D01*
X112106372Y-35516650D01*
X112119806Y-35488246D01*
X112135959Y-35461296D01*
X112154677Y-35436058D01*
X112175777Y-35412777D01*
X112199058Y-35391677D01*
X112224296Y-35372959D01*
X112251246Y-35356806D01*
X112279650Y-35343372D01*
X112309234Y-35332787D01*
X112339713Y-35325152D01*
X112370793Y-35320542D01*
X112402176Y-35319000D01*
X113911824Y-35319000D01*
X113943207Y-35320542D01*
X113943207Y-35320542D01*
G37*
D11*
X113157000Y-36231500D03*
G04 #@! TD*
D10*
G04 #@! TO.C,R2*
G36*
X106069207Y-38422542D02*
X106100287Y-38427152D01*
X106130766Y-38434787D01*
X106160350Y-38445372D01*
X106188754Y-38458806D01*
X106215704Y-38474959D01*
X106240942Y-38493677D01*
X106264223Y-38514777D01*
X106285323Y-38538058D01*
X106304041Y-38563296D01*
X106320194Y-38590246D01*
X106333628Y-38618650D01*
X106344213Y-38648234D01*
X106351848Y-38678713D01*
X106356458Y-38709793D01*
X106358000Y-38741176D01*
X106358000Y-39925824D01*
X106356458Y-39957207D01*
X106351848Y-39988287D01*
X106344213Y-40018766D01*
X106333628Y-40048350D01*
X106320194Y-40076754D01*
X106304041Y-40103704D01*
X106285323Y-40128942D01*
X106264223Y-40152223D01*
X106240942Y-40173323D01*
X106215704Y-40192041D01*
X106188754Y-40208194D01*
X106160350Y-40221628D01*
X106130766Y-40232213D01*
X106100287Y-40239848D01*
X106069207Y-40244458D01*
X106037824Y-40246000D01*
X104528176Y-40246000D01*
X104496793Y-40244458D01*
X104465713Y-40239848D01*
X104435234Y-40232213D01*
X104405650Y-40221628D01*
X104377246Y-40208194D01*
X104350296Y-40192041D01*
X104325058Y-40173323D01*
X104301777Y-40152223D01*
X104280677Y-40128942D01*
X104261959Y-40103704D01*
X104245806Y-40076754D01*
X104232372Y-40048350D01*
X104221787Y-40018766D01*
X104214152Y-39988287D01*
X104209542Y-39957207D01*
X104208000Y-39925824D01*
X104208000Y-38741176D01*
X104209542Y-38709793D01*
X104214152Y-38678713D01*
X104221787Y-38648234D01*
X104232372Y-38618650D01*
X104245806Y-38590246D01*
X104261959Y-38563296D01*
X104280677Y-38538058D01*
X104301777Y-38514777D01*
X104325058Y-38493677D01*
X104350296Y-38474959D01*
X104377246Y-38458806D01*
X104405650Y-38445372D01*
X104435234Y-38434787D01*
X104465713Y-38427152D01*
X104496793Y-38422542D01*
X104528176Y-38421000D01*
X106037824Y-38421000D01*
X106069207Y-38422542D01*
X106069207Y-38422542D01*
G37*
D11*
X105283000Y-39333500D03*
D10*
G36*
X106069207Y-35447542D02*
X106100287Y-35452152D01*
X106130766Y-35459787D01*
X106160350Y-35470372D01*
X106188754Y-35483806D01*
X106215704Y-35499959D01*
X106240942Y-35518677D01*
X106264223Y-35539777D01*
X106285323Y-35563058D01*
X106304041Y-35588296D01*
X106320194Y-35615246D01*
X106333628Y-35643650D01*
X106344213Y-35673234D01*
X106351848Y-35703713D01*
X106356458Y-35734793D01*
X106358000Y-35766176D01*
X106358000Y-36950824D01*
X106356458Y-36982207D01*
X106351848Y-37013287D01*
X106344213Y-37043766D01*
X106333628Y-37073350D01*
X106320194Y-37101754D01*
X106304041Y-37128704D01*
X106285323Y-37153942D01*
X106264223Y-37177223D01*
X106240942Y-37198323D01*
X106215704Y-37217041D01*
X106188754Y-37233194D01*
X106160350Y-37246628D01*
X106130766Y-37257213D01*
X106100287Y-37264848D01*
X106069207Y-37269458D01*
X106037824Y-37271000D01*
X104528176Y-37271000D01*
X104496793Y-37269458D01*
X104465713Y-37264848D01*
X104435234Y-37257213D01*
X104405650Y-37246628D01*
X104377246Y-37233194D01*
X104350296Y-37217041D01*
X104325058Y-37198323D01*
X104301777Y-37177223D01*
X104280677Y-37153942D01*
X104261959Y-37128704D01*
X104245806Y-37101754D01*
X104232372Y-37073350D01*
X104221787Y-37043766D01*
X104214152Y-37013287D01*
X104209542Y-36982207D01*
X104208000Y-36950824D01*
X104208000Y-35766176D01*
X104209542Y-35734793D01*
X104214152Y-35703713D01*
X104221787Y-35673234D01*
X104232372Y-35643650D01*
X104245806Y-35615246D01*
X104261959Y-35588296D01*
X104280677Y-35563058D01*
X104301777Y-35539777D01*
X104325058Y-35518677D01*
X104350296Y-35499959D01*
X104377246Y-35483806D01*
X104405650Y-35470372D01*
X104435234Y-35459787D01*
X104465713Y-35452152D01*
X104496793Y-35447542D01*
X104528176Y-35446000D01*
X106037824Y-35446000D01*
X106069207Y-35447542D01*
X106069207Y-35447542D01*
G37*
D11*
X105283000Y-36358500D03*
G04 #@! TD*
D15*
G04 #@! TO.C,SW1*
X160020000Y-44600000D03*
X155520000Y-44600000D03*
X160020000Y-38100000D03*
X155520000Y-38100000D03*
G04 #@! TD*
G04 #@! TO.C,SW2*
X160020000Y-56030000D03*
X155520000Y-56030000D03*
X160020000Y-49530000D03*
X155520000Y-49530000D03*
G04 #@! TD*
G04 #@! TO.C,SW3*
X160020000Y-67460000D03*
X155520000Y-67460000D03*
X160020000Y-60960000D03*
X155520000Y-60960000D03*
G04 #@! TD*
D16*
G04 #@! TO.C,U1*
X146174460Y-47652940D03*
X144904460Y-47652940D03*
X143634460Y-47652940D03*
X142364460Y-47652940D03*
X141094460Y-47652940D03*
X139829540Y-47652940D03*
X138559540Y-47652940D03*
X137289540Y-47652940D03*
X136019540Y-47652940D03*
X134749540Y-47652940D03*
X134749540Y-57249060D03*
X136019540Y-57249060D03*
X137289540Y-57249060D03*
X138559540Y-57249060D03*
X139829540Y-57249060D03*
X141094460Y-57249060D03*
X142364460Y-57249060D03*
X143634460Y-57249060D03*
X144904460Y-57249060D03*
X146174460Y-57249060D03*
G04 #@! TD*
D12*
G04 #@! TO.C,U2*
X115443000Y-45466000D03*
X117983000Y-45466000D03*
X120523000Y-45466000D03*
X123063000Y-45466000D03*
X125603000Y-45466000D03*
X128143000Y-45466000D03*
X128143000Y-60706000D03*
X125603000Y-60706000D03*
X123063000Y-60706000D03*
X120523000Y-60706000D03*
X117983000Y-60706000D03*
D17*
X115443000Y-60706000D03*
G04 #@! TD*
D18*
G04 #@! TO.C,REF3*
X166370000Y-35560000D03*
G04 #@! TD*
G04 #@! TO.C,REF*
X166370000Y-68580000D03*
G04 #@! TD*
G04 #@! TO.C,REF2*
X92710000Y-68580000D03*
G04 #@! TD*
G04 #@! TO.C,REF1*
X92710000Y-35560000D03*
G04 #@! TD*
M02*
